<svg width="877" height="350" xmlns="http://www.w3.org/2000/svg">
 <metadata id="metadata8">image/svg+xml</metadata>
 <defs>
  <clipPath clipPathUnits="userSpaceOnUse" id="clipPath16">
   <path d="m-75.200005,754.475952l841.890007,0l0,-595.27594l-841.890007,0l0,595.27594z" id="path18"/>
  </clipPath>
 </defs>
 <g>
  <title>background</title>
  <rect fill="none" id="canvas_background" height="352" width="879" y="-1" x="-1"/>
 </g>
 <g>
  <title>Layer 1</title>
  <g id="g10" transform="matrix(1.25, 0, 0, -1.25, 0, 744.095)">
   <g id="g12">
    <g id="g14" clip-path="url(#clipPath16)">
     <g id="g20">
      <path fill="#2a5c3d" fill-rule="nonzero" d="m260.874817,504.496399c-1.971985,-3.154999 -4.766998,-4.747986 -8.385986,-4.747986l-5.536011,0l4.432007,24.523987c1.145996,0.086975 2.016998,0.123962 2.582001,0.123962l2.968994,0c2.213989,0 3.917999,-0.566956 5.118988,-1.719971c1.181,-1.160034 1.782013,-3.242004 1.782013,-6.283997c0,-4.759003 -0.990997,-8.733002 -2.962006,-11.895996m24.768005,13.252991c0,8.04895 -2.298004,13.986938 -6.89801,17.802979c-4.604004,3.813965 -10.973999,5.734009 -19.098999,5.734009c-4.764984,0 -9.497986,-0.193054 -14.169983,-0.55304c-4.686005,-0.380005 -9.160004,-0.846008 -13.429016,-1.424011l-14.419006,-81.948914l21.928009,0l4.438995,25.141998l6.153015,0c4.776001,0 9.30899,0.735992 13.621002,2.220978c4.312988,1.47702 8.097992,3.673004 11.342987,6.591003c3.246002,2.912994 5.80899,6.567017 7.700012,10.971008c1.885986,4.389984 2.830994,9.544006 2.830994,15.463989" id="path22"/>
     </g>
     <g id="g24">
      <path fill="#2a5c3d" fill-rule="nonzero" d="m305.609131,490.628204l20.451996,0l3.208008,18.123993l-20.455994,0l2.342987,13.304016l27.848999,0c0.987,2.872986 1.890015,5.955017 2.710999,9.247009c0.822998,3.278931 1.471008,6.320923 1.976013,9.113953l-51.270996,0l-14.663025,-83.056976l51.753021,0c0.90799,3.041992 1.789001,6.105011 2.648987,9.183014c0.873016,3.079987 1.548004,6.097992 2.041016,9.048004l-31.299011,0l2.707001,15.036987z" id="path26"/>
     </g>
     <g id="g28">
      <path fill="#2a5c3d" fill-rule="nonzero" d="m375.425507,523.910034c1.222992,0 2.653992,-0.080017 4.306,-0.246033c1.640015,-0.164001 3.347015,-0.39801 5.110016,-0.677002c1.770996,-0.289978 3.547974,-0.617004 5.357971,-0.98999c1.803009,-0.373962 3.499023,-0.76001 5.054016,-1.166992c1.317993,3.03595 2.347992,6.111023 3.088989,9.232971c0.725006,3.133057 1.259003,6.041992 1.593018,8.756958c-1.479004,0.406982 -3.105011,0.798035 -4.868011,1.164001c-1.764984,0.369995 -3.576996,0.684998 -5.415009,0.929016c-1.85199,0.250977 -3.664978,0.435974 -5.43399,0.557007c-1.756989,0.122986 -3.302002,0.18396 -4.621002,0.18396c-5.007996,0 -9.656006,-0.536987 -13.915009,-1.602966c-4.277985,-1.070007 -7.978973,-2.72998 -11.086975,-4.984924c-3.126007,-2.264038 -5.593018,-5.125 -7.396027,-8.571045c-1.807983,-3.450989 -2.710999,-7.563965 -2.710999,-12.324951c0,-3.699036 0.677002,-6.822052 2.024017,-9.367035c1.363007,-2.545013 3.027008,-4.71701 4.994995,-6.527008c1.972015,-1.809998 4.151001,-3.345001 6.53299,-4.622986c2.380005,-1.274017 4.551025,-2.507996 6.529999,-3.701019c1.968018,-1.18399 3.628998,-2.438995 4.988007,-3.751984c1.354004,-1.322998 2.037018,-2.960999 2.037018,-4.929016c0,-2.218994 -0.640015,-4.020996 -1.911011,-5.423981c-1.269012,-1.399017 -3.43399,-2.096008 -6.476013,-2.096008c-1.472992,0 -3.116974,0.153992 -4.914978,0.432983c-1.822998,0.28302 -3.683014,0.657013 -5.614014,1.107025c-1.928009,0.459991 -3.820007,1.013 -5.673004,1.655975c-1.841003,0.663025 -3.59198,1.372009 -5.227997,2.105011c-2.876007,-5.993011 -5.019012,-11.997986 -6.417999,-17.98999c1.895996,-0.822021 3.882996,-1.567993 5.977997,-2.226013c2.093994,-0.656006 4.231995,-1.165985 6.412018,-1.531982c2.179993,-0.376007 4.284973,-0.661011 6.342987,-0.863007c2.053009,-0.209991 3.988007,-0.30899 5.799011,-0.30899c4.597992,0 8.992004,0.554993 13.18399,1.661987c4.186005,1.102997 7.839996,2.81601 10.968994,5.114014c3.118011,2.298981 5.606995,5.198975 7.445007,8.684998c1.855011,3.483978 2.777008,7.621979 2.777008,12.390991c0,3.697998 -0.675995,6.813995 -2.027008,9.359985c-1.360016,2.546021 -3.026001,4.748016 -4.996002,6.597015c-1.968994,1.848999 -4.140015,3.406982 -6.528992,4.678986c-2.386993,1.269012 -4.561005,2.509003 -6.532013,3.695007c-1.96701,1.192993 -3.638,2.423004 -4.992981,3.699036c-1.35202,1.276001 -2.034027,2.776001 -2.034027,4.497925c0,2.220032 0.595001,4.012085 1.791016,5.369019c1.182007,1.348999 3.348999,2.029053 6.477997,2.029053" id="path30"/>
     </g>
     <g id="g32">
      <path fill="#2a5c3d" fill-rule="nonzero" d="m547.514404,540.416748l-20.960022,0l-9.002991,-50.64093c-0.898987,-5.341003 -2.419006,-9.098022 -4.557983,-11.278992c-2.125,-2.179016 -5.298035,-3.27301 -9.47699,-3.27301c-3.466003,0 -5.963989,0.75 -7.528992,2.221985c-1.567017,1.481018 -2.332031,3.778992 -2.332031,6.902008c0,0.660004 0.065002,1.602997 0.17804,2.841003c0.120972,1.227997 0.266968,2.329987 0.439941,3.324005l8.870056,49.903931l-21.938019,0l-8.628967,-48.179932c-0.328003,-1.723999 -0.535034,-3.410004 -0.608032,-5.048004c-0.086975,-1.647003 -0.133972,-3.204987 -0.133972,-4.687012c0,-4.595978 0.700989,-8.566986 2.099976,-11.884979c1.392029,-3.32901 3.432007,-6.065002 6.111023,-8.201019c2.664978,-2.139984 5.869965,-3.718994 9.662994,-4.746002c3.771973,-1.026001 8.050964,-1.537994 12.822998,-1.537994c5.656982,0 10.574951,0.839996 14.727966,2.526001c4.138,1.678986 7.651001,4.059998 10.528992,7.143005c2.879028,3.088989 5.218018,6.820007 7.02301,11.222992c1.807007,4.39502 3.198975,9.289001 4.185974,14.713989l8.517029,48.678955z" id="path34"/>
     </g>
     <g id="g36">
      <path fill="#2a5c3d" fill-rule="nonzero" d="m553.284912,540.416748l-14.666992,-83.055939l21.937988,0l14.661987,83.055939l-21.932983,0z" id="path38"/>
     </g>
     <g id="g40">
      <path fill="#2a5c3d" fill-rule="nonzero" d="m622.919678,483.983704c0,3.697998 -0.672974,6.813995 -2.031982,9.359985c-1.360046,2.546021 -3.027039,4.748016 -4.991028,6.598022c-1.973999,1.848999 -4.153015,3.406006 -6.532959,4.678986c-2.38501,1.268005 -4.564026,2.507996 -6.537048,3.695007c-1.972961,1.191986 -3.638,2.421997 -4.982971,3.697968c-1.354004,1.276001 -2.03302,2.777039 -2.03302,4.498047c0,2.219971 0.591003,4.013 1.772034,5.369019c1.198975,1.349976 3.357971,2.028931 6.477966,2.028931c1.225037,0 2.671997,-0.079956 4.312012,-0.245972c1.64502,-0.162964 3.351013,-0.396973 5.116028,-0.677002c1.766968,-0.289978 3.552979,-0.615967 5.365967,-0.98999c1.797974,-0.374023 3.478027,-0.76001 5.044006,-1.166016c1.320007,3.035034 2.346008,6.110962 3.078979,9.233032c0.741028,3.131958 1.278992,6.040955 1.606018,8.75592c-1.473022,0.407043 -3.098999,0.798035 -4.864014,1.164001c-1.766968,0.369995 -3.578979,0.686035 -5.424988,0.929016c-1.853027,0.250977 -3.651001,0.435974 -5.416992,0.557007c-1.773987,0.122986 -3.307007,0.18396 -4.619995,0.18396c-5.018005,0 -9.655029,-0.536987 -13.92804,-1.602966c-4.269958,-1.070007 -7.970947,-2.72998 -11.089966,-4.984985c-3.125,-2.264038 -5.596008,-5.125 -7.39502,-8.569946c-1.813965,-3.452026 -2.713013,-7.565063 -2.713013,-12.325012c0,-3.700012 0.674011,-6.822021 2.03302,-9.368011c1.353027,-2.545013 3.025024,-4.71701 4.991028,-6.527008c1.971985,-1.809998 4.138,-3.345001 6.531006,-4.622986c2.378967,-1.274017 4.564941,-2.507996 6.530945,-3.701019c1.973022,-1.182983 3.632019,-2.438995 4.991028,-3.751984c1.354004,-1.321991 2.03302,-2.960999 2.03302,-4.928009c0,-2.220001 -0.632996,-4.020996 -1.906006,-5.424988c-1.280029,-1.399017 -3.433044,-2.095001 -6.478027,-2.095001c-1.471985,0 -3.118958,0.152985 -4.924988,0.432983c-1.80603,0.282013 -3.671997,0.656006 -5.598022,1.106018c-1.925964,0.460999 -3.830994,1.013 -5.68396,1.656006c-1.845032,0.662994 -3.592041,1.371979 -5.231018,2.10498c-2.879028,-5.992981 -5.005981,-11.997986 -6.419006,-17.98999c1.898987,-0.821991 3.898987,-1.567993 5.984985,-2.225006c2.098999,-0.657013 4.223999,-1.166992 6.411011,-1.53299c2.171997,-0.376007 4.299011,-0.660004 6.351013,-0.863007c2.046997,-0.209991 3.979004,-0.30899 5.797974,-0.30899c4.592041,0 8.990051,0.556 13.175049,1.662994c4.191956,1.102997 7.849976,2.815002 10.961975,5.113007c3.119019,2.299988 5.612,5.198975 7.458008,8.684998c1.859985,3.484985 2.778992,7.621979 2.778992,12.390991" id="path42"/>
     </g>
     <g id="g44">
      <path fill="#2a5c3d" fill-rule="nonzero" d="m634.494873,540.416748l-14.661011,-83.055939l51.754028,0c0.901001,3.041992 1.786011,6.104004 2.645996,9.182007c0.872986,3.079987 1.545959,6.098999 2.044983,9.048004l-31.307983,0l2.719971,15.036987l20.446045,0l3.211975,18.123993l-20.466003,0l2.340027,13.305023l27.848999,0c0.998962,2.872009 1.899963,5.955017 2.717957,9.245911c0.820007,3.280029 1.480042,6.322021 1.968018,9.114014l-51.263,0z" id="path46"/>
     </g>
     <g id="g48">
      <path fill="#2a5c3d" fill-rule="nonzero" d="m447.434296,504.745911c-0.202026,-1.928986 -0.507996,-4.048004 -0.916016,-6.347992c-0.907959,-4.76001 -1.870972,-8.722015 -2.901001,-11.891022c-1.018005,-3.166992 -2.22998,-5.668976 -3.640991,-7.517975c-1.388977,-1.846008 -2.985962,-3.141998 -4.79599,-3.88501c-1.806,-0.733002 -3.89801,-1.105988 -6.291016,-1.105988c-3.444977,0 -6.057983,1.046997 -7.814972,3.144989c-1.768005,2.089996 -2.654022,5.518005 -2.654022,10.290009c0,1.639984 0.097992,3.488983 0.304016,5.547974c0.203979,2.049011 0.518982,4.262024 0.924988,6.64801c0.821991,4.600006 1.789001,8.450012 2.897003,11.526001c1.112,3.078003 2.377991,5.565002 3.819,7.450012c1.436005,1.895996 3.05899,3.227966 4.873016,4.008972c1.799988,0.78302 3.816986,1.169006 6.031006,1.169006c3.302002,0 5.860962,-1.008972 7.699951,-3.018005c1.852051,-2.01001 2.774048,-5.572998 2.774048,-10.656982c0,-1.652985 -0.098999,-3.433014 -0.309021,-5.362m-8.307007,36.907959c-5.423981,0 -10.47998,-0.741028 -15.161987,-2.21698c-4.688995,-1.472046 -8.881012,-3.824951 -12.578003,-7.026978c-3.695007,-3.202026 -6.815002,-7.333008 -9.360016,-12.385986c-2.541992,-5.051025 -4.39798,-11.14502 -5.538971,-18.299011c-0.332031,-2.054016 -0.574005,-4.209015 -0.743011,-6.471008c-0.158997,-2.253998 -0.247009,-4.29599 -0.247009,-6.105988c0,-5.497009 0.733002,-10.325012 2.21701,-14.46701c1.484009,-4.145996 3.613007,-7.597992 6.412994,-10.35199c2.791992,-2.76001 6.127991,-4.813019 10.040985,-6.166016c0.5,-0.173004 1.038025,-0.302979 1.553009,-0.460999l-2.487,-10.929993l21.936005,0l2.390015,10.481995c1.615967,0.350006 3.214966,0.753998 4.766968,1.279999c4.755005,1.598999 9.012024,4.106018 12.756042,7.516998c3.735962,3.408997 6.893982,7.739014 9.487976,13.001007c2.585022,5.264984 4.370972,11.502991 5.356995,18.730988c0.246033,1.888 0.432983,3.615021 0.554016,5.178009c0.132019,1.55899 0.184998,3.197998 0.184998,4.925018c0,11.504944 -2.819031,20.004944 -8.442993,25.513c-5.624023,5.501953 -13.328003,8.254944 -23.098022,8.254944" id="path50"/>
     </g>
     <g id="g52">
      <path fill="#2a8954" fill-rule="nonzero" d="m319.509521,404.429993c0,6.104004 -1.319,10.452026 -3.942993,13.039001c-2.622009,2.588013 -6.341003,3.888 -11.171997,3.888c-2.90802,0 -5.479004,-0.411987 -7.713013,-1.225983c-2.235992,-0.81601 -4.207001,-2.179993 -5.90799,-4.101013c-1.710999,-1.91098 -3.171997,-4.412994 -4.420013,-7.504974c-1.23999,-3.078003 -2.325989,-6.897034 -3.248993,-11.434998c-0.569,-2.489014 -0.990997,-4.973022 -1.279999,-7.451019c-0.276001,-2.481995 -0.425018,-4.967987 -0.425018,-7.454987c0,-5.740021 1.237,-9.947998 3.735016,-12.606995c2.475006,-2.670013 6.23999,-3.993011 11.279999,-3.993011c2.90799,0 5.47699,0.388 7.718994,1.17099c2.237,0.772003 4.205017,2.070984 5.902008,3.888c1.704987,1.804993 3.153992,4.205017 4.360992,7.181c1.20401,2.975006 2.27002,6.630005 3.190002,10.962006c0.569,2.552979 1.029999,5.143982 1.386993,7.768005c0.358002,2.627991 0.536011,5.260986 0.536011,7.875977m10.964996,-1.599976c0,-1.059021 -0.059998,-2.282013 -0.156982,-3.661987c-0.112,-1.38501 -0.272003,-2.845032 -0.483002,-4.371033c-0.208008,-1.52301 -0.460022,-3.06897 -0.745026,-4.628967c-0.293976,-1.559021 -0.605988,-3.011017 -0.957977,-4.372009c-2.416016,-10.13501 -6.403015,-17.554016 -11.976013,-22.234009c-5.572998,-4.688995 -12.471985,-7.023987 -20.705994,-7.023987c-7.867004,0 -14.011017,2.27298 -18.403015,6.807983c-4.404999,4.541016 -6.612,11.317993 -6.612,20.332001c0,2.052002 0.170013,4.427002 0.483002,7.130005c0.322998,2.694977 0.763,5.431976 1.340027,8.196991c2.268982,10.852997 6.232971,18.796997 11.914978,23.84201c5.671021,5.033997 12.806,7.552979 21.397003,7.552979c7.947998,0 14.084015,-2.291992 18.408997,-6.866974c4.328003,-4.574005 6.496002,-11.476013 6.496002,-20.703003" id="path54"/>
     </g>
     <g id="g56">
      <path fill="#2a8954" fill-rule="nonzero" d="m381.704803,398.312805c-1.700989,-2.729004 -4.113007,-4.10199 -7.238007,-4.10199l-4.787994,0l3.82901,21.181976c0.994995,0.073029 1.740997,0.103027 2.237976,0.103027l2.554016,0c1.925995,0 3.38501,-0.490021 4.423004,-1.483002c1.022003,-1.002991 1.540009,-2.802002 1.540009,-5.428009c0,-4.110992 -0.853027,-7.544006 -2.558014,-10.272003m21.390991,11.444c0,6.951996 -1.983978,12.084015 -5.958984,15.375c-3.971008,3.299988 -9.476013,4.953003 -16.496002,4.953003c-4.109009,0 -8.197998,-0.164001 -12.243011,-0.47699c-4.044006,-0.327026 -7.906006,-0.730011 -11.591003,-1.230011l-12.462982,-70.779999l18.946991,0l3.830994,21.713989l5.321014,0c4.115997,0 8.044006,0.638 11.759003,1.920013c3.725983,1.276001 7.005005,3.171997 9.803986,5.695007c2.79599,2.513 5.007996,5.67099 6.654999,9.472992c1.622009,3.791992 2.434998,8.246979 2.434998,13.356995" id="path58"/>
     </g>
     <g id="g60">
      <path fill="#2a8954" fill-rule="nonzero" d="m433.654114,401.020813c-1.705994,-2.125 -3.872009,-3.184998 -6.501007,-3.184998l-5.108978,0l3.088989,17.343018c0.994995,0.070984 1.877991,0.109985 2.653992,0.109985l2.45401,0c3.97699,0 5.957001,-2.028015 5.957001,-6.067017c0,-3.334991 -0.843994,-6.067993 -2.544006,-8.200989m10.376007,-17.989014c-1.247986,2.272034 -2.645996,4.372009 -4.210999,6.281006c2.198975,0.786011 4.224976,1.819 6.075989,3.088989c1.835999,1.279022 3.453979,2.822021 4.833984,4.632019c1.382996,1.807983 2.466003,3.867004 3.249023,6.169983c0.78302,2.30603 1.171997,4.855011 1.171997,7.610016c0,3.406006 -0.55603,6.321014 -1.646973,8.737c-1.103027,2.406006 -2.649048,4.394989 -4.636047,5.954987c-1.982971,1.55603 -4.337952,2.719025 -7.07196,3.452026c-2.742004,0.755981 -5.733032,1.126984 -8.992035,1.126984c-3.627991,0 -7.434998,-0.14798 -11.447998,-0.427002c-4.009979,-0.290985 -8.211975,-0.712982 -12.612,-1.279999l-12.451996,-70.779999l18.623993,0l4.688019,26.402985l3.938995,0c0.915009,-1.564972 1.942993,-3.711975 3.079987,-6.439972c1.136017,-2.743011 2.169006,-5.805023 3.085999,-9.21402l3.095001,-11.497009c3.259003,0 6.516022,0.165039 9.787018,0.481018c3.260986,0.320007 6.447998,0.799988 9.565979,1.438995l-5.094971,16.816986c-0.785034,2.700012 -1.796997,5.182007 -3.031006,7.445007" id="path62"/>
     </g>
     <g id="g64">
      <path fill="#2a8954" fill-rule="nonzero" d="m477.980194,386.333313l17.665985,0l2.771973,15.653992l-17.678986,0l2.025024,11.486023l24.057953,0c0.85199,2.485992 1.632996,5.144989 2.33905,7.993988c0.70697,2.828003 1.278992,5.457001 1.70697,7.867004l-44.283966,0l-12.660034,-71.737l44.701996,0c0.780029,2.628998 1.544983,5.270996 2.285034,7.929993c0.745972,2.658997 1.332947,5.268005 1.758972,7.821991l-27.036957,0l2.346985,12.984009z" id="path66"/>
     </g>
     <g id="g68">
      <path fill="#2a8954" fill-rule="nonzero" d="m552.798584,376.863617c-1.340027,-0.570007 -2.817993,-1.098999 -4.419006,-1.58902c-1.585999,-0.496979 -3.184998,-0.918976 -4.778015,-1.283997c-1.605957,-0.355988 -3.157959,-0.622986 -4.68396,-0.798981c-1.533997,-0.173981 -2.932007,-0.269012 -4.213013,-0.269012c-3.692017,0 -6.470032,0.905029 -8.348999,2.718018c-1.887024,1.812988 -2.819031,4.951996 -2.819031,9.412994c0,2.850006 0.213013,5.528992 0.626038,8.042999c0.43396,2.516998 0.925964,4.916016 1.506958,7.182007c1.33905,4.901001 3.292053,8.409973 5.850037,10.534973c2.546997,2.136017 5.739014,3.199036 9.576965,3.199036c2.478027,0 5.238037,-0.30603 8.244019,-0.908997c3.023987,-0.596008 5.876038,-1.613037 8.562988,-3.032013c0.506042,1.346985 1.033997,2.78598 1.606995,4.313995c0.56604,1.519989 1.071045,3.036987 1.546021,4.519989c0.452026,1.485016 0.88501,2.894012 1.272034,4.205017c0.386963,1.315002 0.698975,2.434998 0.906982,3.35498c-2.700989,1.272003 -5.892029,2.249023 -9.578003,2.928009c-3.697998,0.674011 -7.276001,1.006989 -10.755005,1.006989c-9.077026,0 -16.621033,-2.145996 -22.619019,-6.437988c-5.997986,-4.290985 -10.269958,-10.303009 -12.82196,-18.040009c-1.140015,-3.34198 -2.025024,-6.813995 -2.658997,-10.432007c-0.639038,-3.619995 -0.959045,-7.384979 -0.959045,-11.27298c0,-9.233002 2.371033,-16.151001 7.131042,-20.772003c2.018005,-1.955994 4.544006,-3.468994 7.522949,-4.60199l-2.371948,-10.393005l18.951965,0l1.872986,8.22699c1.960022,0.130005 4.039001,0.343994 6.270996,0.653015c3.765015,0.536011 7.131042,1.292969 10.110046,2.29599c0.146973,1.626984 0.234985,2.868988 0.266968,3.718994c0.039001,0.85202 0.059021,1.703003 0.059021,2.558014c0,1.346985 -0.059021,2.889984 -0.160034,4.620972c-0.105957,1.744019 -0.338989,3.857025 -0.698975,6.33902" id="path70"/>
     </g>
     <g id="g72">
      <path fill="#2a8954" fill-rule="nonzero" d="m600.001709,398.529602c-0.18103,-1.669983 -0.439026,-3.498962 -0.79303,-5.485992c-0.78595,-4.113983 -1.619995,-7.53598 -2.498962,-10.272003c-0.893982,-2.732971 -1.934021,-4.893982 -3.140015,-6.494995c-1.213013,-1.59198 -2.585022,-2.713013 -4.151001,-3.354004c-1.565979,-0.632996 -3.372009,-0.953979 -5.424988,-0.953979c-2.984985,0 -5.237976,0.902985 -6.763,2.716003c-1.526978,1.804993 -2.29303,4.763977 -2.29303,8.885986c0,1.416992 0.080017,3.011993 0.266052,4.791992c0.180969,1.769012 0.453003,3.686005 0.800964,5.742004c0.705994,3.973999 1.546021,7.296021 2.497986,9.955017c0.966003,2.658997 2.052002,4.80899 3.307007,6.438965c1.231018,1.63501 2.637024,2.787018 4.210999,3.458008c1.552002,0.676025 3.291992,1.012024 5.205017,1.012024c2.843018,0 5.057007,-0.873016 6.656982,-2.609009c1.593018,-1.731995 2.386047,-4.811005 2.386047,-9.205994c0,-1.427002 -0.087036,-2.962006 -0.267029,-4.624023m12.775024,24.744019c-4.864014,4.755005 -11.515015,7.126984 -19.952026,7.126984c-4.684998,0 -9.051025,-0.635986 -13.094971,-1.912994c-4.045044,-1.272003 -7.665039,-3.304993 -10.850037,-6.070984c-3.198975,-2.765015 -5.89801,-6.330017 -8.089966,-10.696014c-2.199036,-4.360992 -3.799011,-9.626984 -4.799011,-15.804993c-0.278992,-1.772003 -0.493042,-3.634979 -0.626038,-5.587982c-0.147949,-1.949036 -0.225952,-3.707031 -0.225952,-5.274017c0,-4.748016 0.638,-8.917023 1.917969,-12.498993c1.281006,-3.577026 3.127014,-6.559998 5.538025,-8.942017c2.412964,-2.380005 5.299011,-4.148987 8.670959,-5.321991c3.365051,-1.17099 7.117004,-1.753021 11.222046,-1.753021c4.617981,0 8.983948,0.683014 13.108948,2.072021c4.105042,1.382996 7.791016,3.549011 11.009033,6.492004c3.224976,2.945007 5.951965,6.687012 8.197998,11.227997c2.231018,4.552002 3.778015,9.94101 4.624023,16.181976c0.213989,1.632019 0.373962,3.122009 0.485962,4.475037c0.108032,1.338989 0.153992,2.763 0.153992,4.250977c0,9.937012 -2.432983,17.279999 -7.290955,22.036011" id="path74"/>
     </g>
     <g id="g76">
      <path fill="#2a8954" fill-rule="nonzero" d="m76.930397,381.303528l1.880997,10.338989l23.339012,-4.256012l-1.893005,-10.345978l-23.327003,4.263z" id="path78"/>
     </g>
     <g id="g80">
      <path fill="#2a8954" fill-rule="nonzero" d="m63.159889,337.079895l8.356995,40.141022l32.75602,-5.972015l-8.364021,-40.146973c-1.093994,-6.001038 -6.839996,-9.975037 -12.843994,-8.881012l-11.024002,2.013c-5.996002,1.096985 -9.979996,6.845978 -8.880997,12.845978" id="path82"/>
     </g>
     <g id="g84">
      <path fill="#2a8954" fill-rule="nonzero" d="m126.4646,580.668274c-44.391014,9.230957 -88.03701,-14.86499 -105.381004,-55.341003c-2.482002,-5.781982 -4.427002,-11.904968 -5.759003,-18.300964c-0.446999,-2.182007 -0.815002,-4.363007 -1.112999,-6.53302c-0.015999,-0.094971 -0.038002,-0.195984 -0.038002,-0.293976c-0.296997,-2.114014 -0.498001,-4.217987 -0.633003,-6.305023c-0.007996,-0.167969 -0.029999,-0.320984 -0.037994,-0.477966c-0.130005,-2.059998 -0.184006,-4.120026 -0.178001,-6.155029c-0.003998,-0.181976 0.002998,-0.362976 0.002998,-0.549988c0.013,-2.026001 0.099998,-4.044983 0.247002,-6.052002c0.011002,-0.184998 0.016998,-0.36499 0.036003,-0.552002c0.157997,-2.011993 0.375,-4.000977 0.665993,-5.985992c0.019005,-0.174011 0.044006,-0.338013 0.070007,-0.514008c0.282997,-1.884003 0.622993,-3.760986 1.019997,-5.61499l15.838997,3.625977c-0.012001,0.063019 -0.029999,0.124023 -0.042,0.184021c-0.069,0.339996 -0.138,0.695007 -0.203995,1.028015c-1.193001,6.250977 -1.649002,12.753967 -1.259003,19.401001c0.23100300000000001,3.985992 0.758003,7.885986 1.553001,11.682983c0.020996,0.117004 0.044998,0.240997 0.070999,0.350006c0.228996,1.040009 0.473999,2.069977 0.742996,3.100006c0.064003,0.259979 0.125,0.513 0.195,0.780975c0.226006,0.867004 0.487007,1.732025 0.755005,2.582001c0.278999,0.921021 0.571999,1.830017 0.895996,2.743042c0.165001,0.477966 0.322006,0.962952 0.489006,1.438965c0.905998,2.440002 1.909996,4.794006 3.009995,7.084961c0.039001,0.090027 0.075005,0.182007 0.117004,0.268066c0.277,0.562988 0.570999,1.10498 0.860001,1.656982c6.098999,11.785034 15.044998,21.784973 25.880997,29.100952c0.091003,0.060974 0.180008,0.119019 0.270004,0.177002c0.763,0.520996 1.554001,1.005981 2.334991,1.489014c0.32901,0.190002 0.644012,0.406006 0.971008,0.597961c0.554993,0.335999 1.140991,0.65802 1.713989,0.984009c0.554016,0.315979 1.113007,0.647034 1.67601,0.936035c0.369003,0.192993 0.737991,0.371948 1.098999,0.555969c0.791,0.403015 1.560989,0.799988 2.358002,1.174011c0.173996,0.078003 0.352997,0.15802 0.537003,0.234009c0.973999,0.453003 1.964996,0.893005 2.958984,1.305969c0.022003,0.002991 0.039001,0.015015 0.052002,0.018005c3.443008,1.402039 6.984009,2.570007 10.59201,3.473999c0.056,0.01001 0.117004,0.027039 0.177994,0.044006c1.134003,0.273987 2.274002,0.528992 3.419006,0.765015c1.177002,0.231018 2.360992,0.442017 3.554993,0.619995c0.018997,0.002014 0.047012,0.012024 0.069,0.012024c5.105003,0.759949 10.359016,1.021973 15.709007,0.723999c2.62001,-0.149048 5.209,-0.42804 7.766998,-0.835999c0.311005,-0.04303 0.624008,-0.106018 0.944,-0.161011c0.891998,-0.152039 1.785004,-0.313049 2.658005,-0.498047c0.876999,-0.178955 1.751007,-0.388 2.628006,-0.599976c0.319,-0.077026 0.628998,-0.140991 0.942001,-0.228027c2.503998,-0.645996 4.981995,-1.421997 7.454987,-2.33197c5.020004,-1.856995 9.738007,-4.190979 14.12001,-6.924988c0.01799,-0.007996 0.035004,-0.023987 0.054001,-0.033997c1.026993,-0.640015 2.028992,-1.304993 3.011993,-1.983032c0.960999,-0.674011 1.901001,-1.360962 2.832001,-2.066956c0.048996,-0.042053 0.097,-0.082031 0.147995,-0.110046c2.952011,-2.268982 5.730011,-4.748962 8.322998,-7.406982c0.019012,-0.012024 0.032013,-0.025024 0.042999,-0.036987c0.754013,-0.776001 1.478012,-1.570007 2.20401,-2.379028c0.126999,-0.140991 0.263,-0.286987 0.386993,-0.424011c0.587006,-0.661987 1.143005,-1.334961 1.703003,-2.015991c0.255005,-0.317993 0.529999,-0.632996 0.789001,-0.954956c0.395004,-0.489014 0.770004,-1.007019 1.164001,-1.522949c0.397995,-0.531006 0.798996,-1.053101 1.178009,-1.587036c0.223999,-0.303955 0.43399,-0.628052 0.650986,-0.936035c0.529007,-0.75293 1.054001,-1.512939 1.548004,-2.287964c0.061996,-0.096069 0.117004,-0.182983 0.177002,-0.277954c7.026001,-11.031006 11.248016,-23.781036 12.140015,-37.027039c0.04599,-0.612 0.102997,-1.22699 0.126007,-1.833984c0.011993,-0.114014 0.009979,-0.21402 0.009003,-0.319031c0.097992,-2.528992 0.074982,-5.094971 -0.068024,-7.674988c-0.061981,-1.057007 -0.145996,-2.118988 -0.253998,-3.184998c-0.031982,-0.391998 -0.083984,-0.787994 -0.139984,-1.179993c-0.087006,-0.850006 -0.192993,-1.692017 -0.317993,-2.531006c-0.042023,-0.299011 -0.088013,-0.608002 -0.141022,-0.908997c-0.171997,-1.083008 -0.360992,-2.165009 -0.578979,-3.244019c-0.011993,-0.052979 -0.021027,-0.105988 -0.029999,-0.166992c-0.789001,-3.829987 -1.861038,-7.656006 -3.260025,-11.453979c-1.576996,-4.327026 -3.514008,-8.424011 -5.723999,-12.277008c-0.054001,-0.088013 -0.098999,-0.178986 -0.156006,-0.258026c-0.438995,-0.767975 -0.899002,-1.515991 -1.373993,-2.271973c-0.201004,-0.321014 -0.395996,-0.632019 -0.606003,-0.947021c-0.311996,-0.47699 -0.630997,-0.953003 -0.951004,-1.427002c-0.319,-0.475983 -0.643997,-0.942993 -0.968002,-1.399963c-0.18399,-0.27002 -0.373993,-0.512024 -0.55899,-0.772034c-3.846008,-5.257996 -8.327011,-10.013 -13.324997,-14.156006c-0.02301,-0.014984 -0.040009,-0.033997 -0.064011,-0.050964c-0.69899,-0.56604 -1.406998,-1.130005 -2.128998,-1.692017c-0.076004,-0.070007 -0.164993,-0.13501 -0.255005,-0.203979c-0.672989,-0.505005 -1.348999,-1.003021 -2.025986,-1.499023c-0.177002,-0.110992 -0.353012,-0.234009 -0.517014,-0.351013c-0.623993,-0.435974 -1.237,-0.86499 -1.86499,-1.283997c-0.362,-0.225983 -0.71701,-0.449982 -1.06601,-0.672974c-0.465988,-0.296021 -0.929001,-0.60202 -1.408997,-0.880005c-1.787003,-1.085022 -3.612,-2.104004 -5.473999,-3.028992c-0.029007,-0.01001 -0.056992,-0.030029 -0.078003,-0.037018c-0.918991,-0.457977 -1.850998,-0.906006 -2.794998,-1.32901c-0.043991,-0.013977 -0.078003,-0.036011 -0.123001,-0.054993c-0.927002,-0.40802 -1.856995,-0.812012 -2.79599,-1.190002c-0.056015,-0.019989 -0.10701,-0.052002 -0.165009,-0.062012c-0.914993,-0.373962 -1.860001,-0.71698 -2.800995,-1.060974c-0.070999,-0.025024 -0.136002,-0.044006 -0.199997,-0.074005c-9.42601,-3.326996 -19.513,-4.821991 -29.714005,-4.277985l0.082993,0.421997c0.050003,-0.004028 0.034012,0.013 0.007004,0.021973l5.440994,28.296997c15.680008,-1.860992 31.596008,4.915009 34.834015,21.751007c4.217987,21.946014 -14.602005,28.932007 -32.380005,34.684998c-10.237,3.261017 -19.806007,6.643005 -18.224007,14.873016c1.679993,8.728027 11.730003,9.906006 22.092003,7.917969c8.600006,-1.653992 17.033997,-7.541992 19.240005,-13.537964l14.677002,3.656982c-3.407013,12.537964 -12.364014,18.407959 -22.662003,22.067993l2.088989,10.850952l-15.837997,3.046997l-2.084991,-10.849976c-14.803017,1.023071 -30.711006,-3.67395 -33.853004,-20.010986c-3.980011,-20.695984 12.875992,-27.181976 30.323006,-32.595978c11.350998,-3.605988 21.11499,-8.591003 19.530991,-16.817993c-1.873001,-9.735016 -12.951004,-11.605011 -24.177002,-9.446991c-10.357002,1.988983 -20.478004,9.234985 -22.301003,17.870972l-15.921005,-3.406982c3.227997,-14.852997 14.972015,-23.710022 28.695007,-27.639008l-8.528,-44.802002c0.849991,-0.199005 1.697006,-0.402985 2.550995,-0.582977c0.494003,-0.112 0.979004,-0.226013 1.488998,-0.332031c32.887016,-6.834991 65.369011,4.637024 87.049019,27.511017c0.006989,0.006989 0.019989,0.016998 0.022995,0.028992c2.830002,2.982025 5.462997,6.167023 7.897003,9.532013c0.169006,0.221008 0.32901,0.437988 0.487,0.658997c2.340027,3.278015 4.478027,6.726013 6.401001,10.328979c0.188019,0.353027 0.361023,0.702026 0.549011,1.048035c0.790009,1.529968 1.536011,3.069977 2.238007,4.639984c0.152985,0.322998 0.303009,0.636993 0.449005,0.962006c0.79599,1.821991 1.539978,3.690979 2.22998,5.585999c0.137024,0.359985 0.256012,0.72699 0.374023,1.089996c0.548981,1.558014 1.052979,3.138 1.521973,4.731995c0.150024,0.532013 0.312012,1.063995 0.451019,1.58902c0.539001,1.958984 1.046997,3.931976 1.470001,5.950989c1.325989,6.397003 1.987,12.786987 2.007996,19.083008c0.21698,44.030029 -30.213028,83.520935 -74.60202,92.743958" id="path86"/>
     </g>
    </g>
   </g>
  </g>
 </g>
</svg>